<svg width="28" height="27" viewBox="0 0 28 27" fill="none" xmlns="http://www.w3.org/2000/svg">
<path d="M19.653 1.27856C17.4958 1.26746 15.445 2.17913 14.0555 3.76696C12.6746 2.16828 10.6181 1.25402 8.4579 1.27856C4.40831 1.27856 1.12549 4.43752 1.12549 8.33433C1.12549 15.0122 13.2247 25.8221 13.7157 26.0741C13.9138 26.2015 14.1722 26.2015 14.3704 26.0741C14.8614 25.8221 26.9855 15.1067 26.9855 8.33433C26.9855 4.43752 23.7026 1.27856 19.653 1.27856ZM14.043 24.8141C12.1445 23.7431 2.43486 13.7522 2.43486 8.33433C2.43486 5.1334 5.13147 2.53847 8.45797 2.53847C10.495 2.51272 12.4014 3.50144 13.499 5.15288C13.7219 5.44861 14.1518 5.5145 14.4591 5.29999C14.5178 5.25899 14.5694 5.20937 14.612 5.15288C16.4324 2.47383 20.1652 1.72212 22.9492 3.47389C24.6536 4.54629 25.6794 6.37474 25.6761 8.33427C25.6761 13.8152 15.9416 23.7746 14.043 24.8141Z" fill="#373737" stroke="#373737"/>
</svg>
