<svg width="28" height="27" viewBox="0 0 28 27" fill="none" xmlns="http://www.w3.org/2000/svg">
<path d="M19.2368 0.239251C17.0795 0.228158 15.0288 1.13982 13.6392 2.72765C12.2583 1.12897 10.2019 0.214713 8.04164 0.239251C3.99205 0.239251 0.709229 3.39822 0.709229 7.29502C0.709229 13.9729 12.8084 24.7827 13.2995 25.0348C13.4976 25.1622 13.756 25.1622 13.9542 25.0348C14.4452 24.7827 26.5692 14.0674 26.5692 7.29502C26.5692 3.39822 23.2863 0.239251 19.2368 0.239251Z" fill="white"/>
<path d="M19.5026 0.72265C17.3454 0.711556 15.2946 1.62322 13.9051 3.21105C12.5242 1.61237 10.4677 0.698111 8.30751 0.72265C4.25792 0.72265 0.975098 3.88161 0.975098 7.77842C0.975098 14.4563 13.0743 25.2661 13.5653 25.5182C13.7635 25.6456 14.0218 25.6456 14.22 25.5182C14.7111 25.2661 26.8351 14.5508 26.8351 7.77842C26.8351 3.88161 23.5522 0.72265 19.5026 0.72265ZM13.8926 24.2582C11.9941 23.1872 2.28447 13.1963 2.28447 7.77842C2.28447 4.5775 4.98108 1.98256 8.30758 1.98256C10.3446 1.95681 12.251 2.94553 13.3486 4.59697C13.5715 4.8927 14.0014 4.9586 14.3087 4.74408C14.3674 4.70308 14.419 4.65346 14.4616 4.59697C16.282 1.91792 20.0148 1.16621 22.7989 2.91798C24.5032 3.99038 25.5291 5.81883 25.5257 7.77836C25.5257 13.2593 15.7912 23.2187 13.8926 24.2582Z" fill="#373737" stroke="#373737"/>
</svg>
